<?xml version="1.0" encoding="utf-8"?>
<!-- Generator: Adobe Illustrator 15.0.0, SVG Export Plug-In . SVG Version: 6.00 Build 0)  -->
<!DOCTYPE svg PUBLIC "-//W3C//DTD SVG 1.1//EN" "http://www.w3.org/Graphics/SVG/1.1/DTD/svg11.dtd">
<svg version="1.1" id="Livello_1" xmlns="http://www.w3.org/2000/svg" xmlns:xlink="http://www.w3.org/1999/xlink" x="0px" y="0px"
	 width="1000px" height="841.89px" viewBox="0 0 1000 841.89" enable-background="new 0 0 1000 841.89" xml:space="preserve">
<circle fill="none" stroke="#000000" stroke-width="3" stroke-miterlimit="10" cx="276.734" cy="158.16" r="13.9"/>
<circle fill="none" stroke="#000000" stroke-miterlimit="10" cx="276.734" cy="158.16" r="25.839"/>
<path fill="none" stroke="#000000" stroke-width="3" stroke-miterlimit="10" d="M248.086,158.158c0,15.82,12.828,28.65,28.649,28.65
	c15.82,0,28.646-12.83,28.646-28.65s-12.826-28.648-28.646-28.648C260.914,129.509,248.086,142.337,248.086,158.158z"/>
<circle fill="none" stroke="#000000" stroke-miterlimit="10" cx="276.734" cy="158.158" r="41.49"/>
<circle fill="none" stroke="#000000" stroke-width="3" stroke-miterlimit="10" cx="276.736" cy="158.158" r="44.314"/>
<path fill="none" stroke="#000000" stroke-miterlimit="10" d="M218.018,158.158c0,32.428,26.289,58.719,58.716,58.719
	c32.426,0,58.719-26.291,58.719-58.719s-26.293-58.715-58.719-58.715C244.307,99.443,218.018,125.73,218.018,158.158z"/>
<path fill="none" stroke="#000000" stroke-width="3" stroke-miterlimit="10" d="M215.061,158.156
	c0,34.061,27.613,61.678,61.677,61.678c34.061,0,61.672-27.617,61.672-61.678c0-34.059-27.611-61.674-61.672-61.674
	C242.674,96.482,215.061,124.097,215.061,158.156z"/>
<path fill="none" stroke="#000000" stroke-miterlimit="10" d="M197.957,158.158c0,43.506,35.27,78.779,78.778,78.779
	c43.504,0,78.777-35.273,78.777-78.779c0-43.508-35.273-78.777-78.777-78.777C233.227,79.381,197.957,114.65,197.957,158.158z"/>
<circle fill="none" stroke="#000000" stroke-width="3" stroke-miterlimit="10" cx="279.74" cy="785.012" r="13.9"/>
<circle fill="none" stroke="#000000" stroke-miterlimit="10" cx="279.739" cy="785.012" r="25.84"/>
<path fill="none" stroke="#000000" stroke-width="3" stroke-miterlimit="10" d="M347.126,612.643
	c0,15.822,12.827,28.651,28.649,28.651c15.821,0,28.647-12.829,28.647-28.651c0-15.82-12.826-28.646-28.647-28.646
	C359.953,583.996,347.126,596.822,347.126,612.643z"/>
<path fill="none" stroke="#000000" stroke-miterlimit="10" d="M334.283,612.645c0,22.912,18.577,41.491,41.49,41.491
	c22.913,0,41.491-18.579,41.491-41.491c0-22.916-18.578-41.49-41.491-41.49C352.86,571.154,334.283,589.729,334.283,612.645z"/>
<path fill="none" stroke="#000000" stroke-width="3" stroke-miterlimit="10" d="M158.443,750.525
	c0,24.475,19.841,44.318,44.315,44.318c24.473,0,44.313-19.844,44.313-44.318c0-24.471-19.84-44.313-44.313-44.313
	C178.284,706.213,158.443,726.055,158.443,750.525z"/>
<circle fill="none" stroke="#000000" stroke-miterlimit="10" cx="202.756" cy="750.527" r="58.717"/>
<path fill="none" stroke="#000000" stroke-width="3" stroke-miterlimit="10" d="M309.099,732.909
	c0,34.061,27.613,61.68,61.676,61.68c34.061,0,61.673-27.619,61.673-61.68c0-34.059-27.613-61.672-61.673-61.672
	C336.712,671.237,309.099,698.851,309.099,732.909z"/>
<path fill="none" stroke="#000000" stroke-miterlimit="10" d="M291.995,732.912c0,43.505,35.271,78.778,78.778,78.778
	c43.504,0,78.779-35.273,78.779-78.778c0-43.508-35.275-78.776-78.779-78.776C327.265,654.136,291.995,689.404,291.995,732.912z"/>
<circle fill="none" stroke="#000000" stroke-width="3" stroke-miterlimit="10" cx="587.127" cy="56.04" r="13.9"/>
<circle fill="none" stroke="#000000" stroke-miterlimit="10" cx="587.127" cy="56.04" r="25.84"/>
<circle fill="none" stroke="#000000" stroke-width="3" stroke-miterlimit="10" cx="701.924" cy="200.398" r="28.648"/>
<circle fill="none" stroke="#000000" stroke-miterlimit="10" cx="701.924" cy="200.399" r="41.49"/>
<path fill="none" stroke="#000000" stroke-width="3" stroke-miterlimit="10" d="M757.818,186.497
	c0,24.474,19.84,44.317,44.314,44.317c24.473,0,44.313-19.844,44.313-44.317c0-24.472-19.84-44.313-44.313-44.313
	C777.658,142.184,757.818,162.025,757.818,186.497z"/>
<circle fill="none" stroke="#000000" stroke-miterlimit="10" cx="802.133" cy="186.498" r="58.717"/>
<path fill="none" stroke="#000000" stroke-width="3" stroke-miterlimit="10" d="M525.453,160.654
	c0,34.061,27.613,61.679,61.676,61.679c34.061,0,61.672-27.618,61.672-61.679c0-34.058-27.611-61.672-61.672-61.672
	C553.066,98.982,525.453,126.596,525.453,160.654z"/>
<path fill="none" stroke="#000000" stroke-miterlimit="10" d="M508.349,160.657c0,43.505,35.271,78.778,78.778,78.778
	c43.504,0,78.777-35.272,78.777-78.778c0-43.508-35.273-78.777-78.777-78.777C543.619,81.88,508.349,117.149,508.349,160.657z"/>
<circle fill="none" stroke="#000000" stroke-width="3" stroke-miterlimit="10" cx="508.111" cy="783.658" r="13.9"/>
<circle fill="none" stroke="#000000" stroke-miterlimit="10" cx="508.111" cy="783.658" r="25.84"/>
<circle fill="none" stroke="#000000" stroke-width="3" stroke-miterlimit="10" cx="829.121" cy="762.112" r="28.648"/>
<circle fill="none" stroke="#000000" stroke-miterlimit="10" cx="829.12" cy="762.113" r="41.491"/>
<circle fill="none" stroke="#000000" stroke-width="3" stroke-miterlimit="10" cx="728.914" cy="750.137" r="44.314"/>
<circle fill="none" stroke="#000000" stroke-miterlimit="10" cx="728.913" cy="750.138" r="58.717"/>
<path fill="none" stroke="#000000" stroke-width="3" stroke-miterlimit="10" d="M532.075,722.979
	c0,34.062,27.613,61.679,61.676,61.679c34.061,0,61.673-27.617,61.673-61.679c0-34.058-27.612-61.673-61.673-61.673
	C559.688,661.306,532.075,688.921,532.075,722.979z"/>
<path fill="none" stroke="#000000" stroke-miterlimit="10" d="M514.971,722.981c0,43.506,35.271,78.777,78.778,78.777
	c43.504,0,78.778-35.271,78.778-78.777c0-43.508-35.274-78.777-78.778-78.777C550.241,644.204,514.971,679.474,514.971,722.981z"/>
<circle fill="none" stroke="#000000" stroke-width="3" stroke-miterlimit="10" cx="509.868" cy="294.926" r="13.9"/>
<circle fill="none" stroke="#000000" stroke-miterlimit="10" cx="509.867" cy="294.927" r="25.84"/>
<circle fill="none" stroke="#000000" stroke-width="3" stroke-miterlimit="10" cx="394.824" cy="488.596" r="28.648"/>
<circle fill="none" stroke="#000000" stroke-miterlimit="10" cx="394.823" cy="488.597" r="41.491"/>
<circle fill="none" stroke="#000000" stroke-width="3" stroke-miterlimit="10" cx="294.616" cy="471.368" r="44.314"/>
<circle fill="none" stroke="#000000" stroke-miterlimit="10" cx="294.616" cy="471.369" r="58.717"/>
<path fill="none" stroke="#000000" stroke-width="3" stroke-miterlimit="10" d="M722.854,451.307
	c0,34.062,27.613,61.679,61.676,61.679c34.061,0,61.672-27.617,61.672-61.679c0-34.058-27.611-61.673-61.672-61.673
	C750.467,389.634,722.854,417.249,722.854,451.307z"/>
<path fill="none" stroke="#000000" stroke-miterlimit="10" d="M705.748,451.31c0,43.506,35.271,78.777,78.779,78.777
	c43.504,0,78.777-35.271,78.777-78.777c0-43.508-35.273-78.777-78.777-78.777C741.02,372.532,705.748,407.802,705.748,451.31z"/>
<circle fill="none" stroke="#000000" stroke-width="3" stroke-miterlimit="10" cx="509.869" cy="346.608" r="13.901"/>
<circle fill="none" stroke="#000000" stroke-miterlimit="10" cx="509.869" cy="346.608" r="25.84"/>
<circle fill="none" stroke="#000000" stroke-width="3" stroke-miterlimit="10" cx="194.409" cy="488.598" r="28.648"/>
<circle fill="none" stroke="#000000" stroke-miterlimit="10" cx="194.408" cy="488.598" r="41.491"/>
<circle fill="none" stroke="#000000" stroke-width="3" stroke-miterlimit="10" cx="647.032" cy="472.368" r="44.313"/>
<circle fill="none" stroke="#000000" stroke-miterlimit="10" cx="647.031" cy="472.37" r="58.717"/>
<path fill="none" stroke="#000000" stroke-width="3" stroke-miterlimit="10" d="M448.194,451.307
	c0,34.063,27.613,61.68,61.675,61.68c34.061,0,61.674-27.617,61.674-61.68c0-34.057-27.613-61.672-61.674-61.672
	C475.808,389.635,448.194,417.25,448.194,451.307z"/>
<path fill="none" stroke="#000000" stroke-miterlimit="10" d="M431.09,451.311c0,43.506,35.271,78.777,78.777,78.777
	c43.504,0,78.779-35.271,78.779-78.777c0-43.508-35.275-78.777-78.779-78.777C466.36,372.533,431.09,407.803,431.09,451.311z"/>
</svg>
