<?xml version="1.0" encoding="utf-8"?>
<!-- Generator: Adobe Illustrator 14.0.0, SVG Export Plug-In . SVG Version: 6.00 Build 43363)  -->
<!DOCTYPE svg PUBLIC "-//W3C//DTD SVG 1.1//EN" "http://www.w3.org/Graphics/SVG/1.1/DTD/svg11.dtd">
<svg version="1.1" id="Capa_1" xmlns="http://www.w3.org/2000/svg" xmlns:xlink="http://www.w3.org/1999/xlink" x="0px" y="0px"
	 width="705px" height="352px" viewBox="0 0 705 352" enable-background="new 0 0 705 352" xml:space="preserve">
<path fill="none" stroke="#000000" stroke-width="2" stroke-linecap="round" stroke-linejoin="bevel" stroke-miterlimit="10" d="
	M533.747,66.951l-7.68,0.24l-7.921,0.959l-7.439,1.439l-7.68,2.16l-7.201,2.64l-7.2,3.12l-6.72,3.599l-6.48,4.32l-6.241,4.8
	l-5.76,5.04l-5.52,5.759l-4.802,6l-4.56,6.24l-4.081,6.719l-3.36,6.96l-2.881,7.2l-2.399,7.439l-1.682,7.44l-1.199,7.68l-0.722,7.92
	v7.681l0.72,7.92l1.199,7.68l1.68,7.44l2.399,7.44l2.879,7.2l3.36,6.96l4.079,6.721l4.56,6.24l4.8,6l5.52,5.761l5.76,5.04
	l6.239,4.801l6.48,4.32l6.72,3.601l7.2,3.12l7.199,2.641l7.68,2.16l7.439,1.44l7.921,0.961l7.68,0.24l7.68-0.239l7.92-0.96
	l7.44-1.439l7.68-2.159l7.201-2.64l7.2-3.119l6.72-3.6l6.48-4.319l6.24-4.8l5.761-5.04l5.52-5.76l4.801-5.999l4.561-6.24l4.081-6.72
	l3.359-6.96l2.881-7.199l2.4-7.44l1.681-7.439l1.2-7.68l0.721-7.92v-7.681l-0.719-7.92l-1.2-7.68l-1.679-7.44l-2.4-7.44l-2.879-7.2
	l-3.359-6.96l-4.079-6.72l-4.561-6.241l-4.799-6l-5.52-5.76l-5.761-5.041l-6.238-4.8l-6.48-4.321l-6.72-3.6l-7.2-3.121l-7.199-2.641
	l-7.68-2.161l-7.44-1.44l-7.92-0.961L533.747,66.951z M533.743,129.59l-4.8,0.24l-4.801,0.959l-4.8,1.44l-4.32,2.16l-4.08,2.639
	l-3.841,3.12l-3.359,3.599l-2.881,3.84l-2.4,4.32l-1.68,4.56l-1.2,4.8l-0.721,4.8v4.801l0.72,4.8l1.199,4.8l1.68,4.561l2.4,4.319
	l2.879,3.841l3.359,3.601l3.841,3.12l4.08,2.64l4.319,2.161l4.799,1.44l4.801,0.96l4.8,0.24l4.8-0.239l4.8-0.96l4.801-1.439
	l4.32-2.16l4.08-2.64l3.84-3.119l3.36-3.601l2.881-3.84l2.4-4.319l1.68-4.561l1.201-4.8l0.72-4.8v-4.8l-0.719-4.8l-1.2-4.8
	l-1.68-4.561l-2.4-4.32l-2.879-3.84l-3.36-3.6l-3.84-3.12l-4.08-2.64l-4.319-2.161l-4.8-1.44l-4.8-0.96L533.743,129.59z
	 M533.742,133.911l-4.561,0.24l-4.319,0.959l-4.32,1.439l-4.08,1.92l-3.84,2.64l-3.36,2.879l-2.881,3.36l-2.64,3.839l-1.92,4.08
	l-1.44,4.319l-0.961,4.32l-0.24,4.561l0.24,4.56l0.959,4.319l1.44,4.321l1.92,4.08l2.64,3.84l2.879,3.36l3.36,2.88l3.84,2.641
	l4.08,1.92l4.32,1.44l4.319,0.96l4.561,0.24l4.56-0.239l4.32-0.96l4.32-1.439l4.08-1.92l3.84-2.64l3.359-2.88l2.881-3.359
	l2.641-3.84l1.92-4.08l1.439-4.32l0.962-4.319l0.239-4.56l-0.239-4.561l-0.96-4.32l-1.439-4.319l-1.92-4.081l-2.641-3.84
	l-2.879-3.36l-3.359-2.88l-3.84-2.64l-4.08-1.921l-4.32-1.439l-4.32-0.96L533.742,133.911z M498.225,96.708l-2.64,0.24l-2.16,0.96
	l-2.16,1.44l-1.68,1.919l-1.201,2.16l-0.72,2.64v2.4l0.72,2.64l1.2,2.16l1.68,1.92l2.16,1.439l2.16,0.96l2.639,0.241l2.642-0.24
	l2.16-0.96l2.159-1.439l1.681-1.92l1.2-2.16l0.72-2.64v-2.4l-0.72-2.64l-1.199-2.16l-1.681-1.92l-2.159-1.441l-2.16-0.96
	L498.225,96.708z M462.941,157.906l-2.641,0.24l-2.16,0.96l-2.159,1.439l-1.682,1.921l-1.2,2.159l-0.72,2.641v2.4l0.72,2.641
	l1.2,2.159l1.681,1.92l2.158,1.44l2.16,0.961l2.641,0.239l2.64-0.239l2.16-0.96l2.161-1.44l1.68-1.92l1.2-2.159l0.72-2.641v-2.4
	l-0.72-2.641l-1.2-2.159l-1.679-1.921l-2.16-1.44l-2.16-0.96L462.941,157.906z M498.217,219.109l-2.64,0.239l-2.16,0.96l-2.161,1.44
	l-1.68,1.92l-1.2,2.159l-0.72,2.641v2.399l0.72,2.641l1.199,2.16l1.68,1.92l2.16,1.439l2.16,0.961l2.64,0.24l2.641-0.24l2.16-0.96
	l2.159-1.439l1.681-1.92l1.201-2.16l0.72-2.64v-2.4l-0.72-2.641l-1.2-2.159l-1.681-1.92l-2.158-1.44l-2.16-0.961L498.217,219.109z
	 M569.018,219.114l-2.641,0.239l-2.16,0.96l-2.16,1.44l-1.681,1.92l-1.2,2.159l-0.72,2.64v2.4l0.72,2.64l1.199,2.161l1.681,1.92
	l2.159,1.439l2.16,0.96l2.641,0.241l2.64-0.24l2.16-0.96l2.16-1.439l1.68-1.92l1.201-2.16l0.72-2.641v-2.399l-0.72-2.641l-1.2-2.159
	l-1.68-1.92l-2.159-1.44l-2.16-0.961L569.018,219.114z M604.541,157.916l-2.64,0.24l-2.16,0.959l-2.16,1.439l-1.681,1.921
	l-1.2,2.159l-0.72,2.641v2.399l0.72,2.641l1.2,2.16l1.68,1.92l2.159,1.44l2.16,0.96l2.64,0.24l2.64-0.239l2.16-0.961l2.161-1.439
	l1.68-1.92l1.2-2.159l0.72-2.641v-2.4l-0.72-2.641l-1.2-2.159l-1.679-1.921l-2.16-1.439l-2.16-0.96L604.541,157.916z
	 M569.025,96.713l-2.641,0.24l-2.16,0.96l-2.159,1.44l-1.681,1.92l-1.201,2.16l-0.72,2.64v2.4l0.72,2.64l1.2,2.16l1.681,1.92
	l2.159,1.44l2.16,0.96l2.64,0.24l2.641-0.24l2.16-0.96l2.16-1.439l1.68-1.92l1.2-2.16l0.72-2.64v-2.4l-0.72-2.64l-1.199-2.161
	l-1.68-1.92l-2.16-1.44l-2.16-0.96L569.025,96.713z M72.934,273.081l-3.36,0.239l-3.12,0.96l-3.12,1.44l-2.64,1.92l-2.4,2.399
	l-1.92,2.88l-1.2,3.12l-0.72,3.359l-0.24,3.12l0.48,3.36l0.959,3.36l1.68,2.88l2.16,2.641l2.399,2.159l2.88,1.681l3.12,1.2
	l3.36,0.72l3.36,0.001l3.36-0.721l3.12-1.199l2.88-1.68l2.4-2.16l2.16-2.64l1.68-2.88l0.96-3.36l0.48-3.359l-0.24-3.12l-0.72-3.36
	l-1.2-3.12l-1.92-2.88l-2.4-2.4l-2.64-1.92l-3.12-1.44l-3.12-0.96L72.934,273.081z M43.412,291.799l0.24,4.32l0.959,4.08l1.44,3.84
	l2.16,3.601l2.4,3.6l2.879,2.881l3.6,2.399l3.6,2.161l3.839,1.439l4.08,0.961l4.32,0.239 M72.933,277.4l-2.88,0.24l-2.88,0.96
	l-2.64,1.439l-2.4,2.16l-1.681,2.4l-1.2,2.64l-0.72,3.119l0,2.881l0.72,3.119L60.452,299l1.68,2.4l2.4,2.16l2.64,1.44l2.879,0.96
	l2.88,0.24l2.88-0.24l2.88-0.96l2.64-1.439l2.4-2.16l1.68-2.399l1.201-2.641l0.72-3.119l0-2.881l-0.72-3.119l-1.2-2.641
	l-1.679-2.399l-2.4-2.161l-2.64-1.439l-2.88-0.96L72.933,277.4z"/>
<path fill="none" stroke="#000000" stroke-width="2" stroke-linecap="round" stroke-linejoin="round" stroke-miterlimit="10" d="
	M43.412,291.799l0.014-206.161 M72.93,321.561l206.4,0.014 M43.426,85.638l29.52,0.002"/>
<polyline fill="none" stroke="#000000" stroke-width="2" stroke-linecap="round" stroke-linejoin="bevel" stroke-miterlimit="10" points="
	279.092,291.814 278.853,280.534 277.894,269.494 276.455,258.454 274.295,247.414 271.656,236.614 268.297,226.054 
	264.458,215.493 260.138,205.174 255.099,195.333 249.58,185.492 243.58,176.133 237.101,167.011 230.141,158.371 222.702,149.97 
	214.783,142.05 206.383,134.609 197.744,127.648 188.624,121.168 179.264,115.167 169.424,109.646 159.585,104.606 149.265,100.286 
	138.706,96.445 128.146,93.084 117.346,90.444 106.306,88.283 95.266,86.842 84.226,85.881 72.946,85.64 "/>
<path fill="none" stroke="#000000" stroke-width="0.72" stroke-linecap="round" stroke-linejoin="round" stroke-miterlimit="10" d="
	M251.491,313.173l0.001-21.36l-0.479-12.72l-0.719-8.16 M249.334,264.213l-1.199-6.721 M246.695,250.772l-2.399-9.12l-4.079-12.24
	l-4.32-10.801 M232.778,212.371l-3.12-6 M226.298,200.611l-3.12-5.28l-7.199-10.32l-7.919-10.081l-1.92-1.92 M201.581,168.209
	l-2.4-2.641l-2.399-2.159 M191.741,158.608l-1.919-1.68l-9.84-7.921l-10.56-7.201l-5.04-3.121 M158.623,135.086l-6.24-2.88
	 M146.383,129.085l-11.04-4.562l-12-3.84l-9.36-2.4 M107.504,116.843l-6.72-1.201 M94.064,114.682l-8.399-0.96l-12.72-0.48"/>
<line fill="none" stroke="#000000" stroke-width="1.2" stroke-linecap="round" stroke-linejoin="round" stroke-miterlimit="10" x1="279.332" y1="291.814" x2="279.33" y2="321.574"/>
<path fill="none" stroke="#000000" stroke-width="2" stroke-linecap="round" stroke-linejoin="bevel" stroke-miterlimit="10" d="
	M105.825,107.483l-2.4,0.239l-2.16,0.96l-1.68,1.44l-1.44,1.92l-0.96,1.92l-0.24,2.4l0.24,2.399l0.96,1.92l1.439,1.92l1.92,1.441
	l1.92,0.96l2.4,0.24l2.4-0.24l1.92-0.96l1.92-1.44l1.44-1.92l0.96-1.92l0.24-2.399l-0.24-2.401l-0.959-1.92l-1.44-1.92l-1.92-1.44
	l-1.92-0.96L105.825,107.483z M177.342,138.208l-2.4,0.24l-2.16,0.959l-1.68,1.439l-1.44,1.92l-0.96,1.92l-0.24,2.4l0.24,2.4
	l0.959,1.92l1.44,1.92l1.92,1.439l1.92,0.96l2.4,0.24l2.4-0.24l1.92-0.959l1.92-1.439l1.44-1.92l0.96-1.92l0.24-2.4l-0.24-2.4
	l-0.959-1.92l-1.44-1.92l-1.92-1.439l-1.92-0.96L177.342,138.208z M223.66,187.171l-2.4,0.239l-2.161,0.96l-1.68,1.44l-1.44,1.92
	l-0.96,1.92l-0.24,2.4l0.24,2.399l0.96,1.92l1.44,1.921l1.919,1.439l1.92,0.96l2.4,0.24l2.4-0.239l1.92-0.96l1.92-1.439l1.44-1.921
	l0.96-1.92l0.24-2.399l-0.24-2.4l-0.96-1.92l-1.44-1.92l-1.92-1.44l-1.919-0.96L223.66,187.171z M251.493,282.933l-2.4,0.24
	l-2.161,0.96l-1.68,1.439l-1.44,1.92l-0.96,1.92l-0.24,2.399l0.24,2.4l0.96,1.921l1.439,1.92l1.92,1.439l1.92,0.96l2.4,0.241
	l2.4-0.24l1.92-0.96l1.92-1.44l1.44-1.919l0.96-1.92l0.24-2.4l-0.239-2.4l-0.96-1.92l-1.44-1.92l-1.92-1.44l-1.92-0.96
	L251.493,282.933z M244.536,233.732l-2.4,0.239l-2.16,0.96l-1.68,1.44l-1.44,1.92l-0.96,1.92l-0.24,2.399l0.24,2.4l0.959,1.92
	l1.44,1.92l1.92,1.44l1.92,0.96l2.4,0.24l2.4-0.239l1.92-0.961l1.92-1.439l1.44-1.92l0.96-1.92l0.24-2.399l-0.24-2.4l-0.959-1.92
	l-1.44-1.921l-1.92-1.439l-1.92-0.96L244.536,233.732z"/>
<path fill="none" stroke="#000000" stroke-width="0.72" stroke-linecap="round" stroke-linejoin="round" stroke-miterlimit="10" d="
	M72.932,291.801l3.362-17.52 M77.494,267.562l1.201-6.721 M80.135,254.121l6.242-33.359 M87.578,214.042l1.201-6.721
	 M89.979,200.603l6.242-33.36 M97.661,160.521l1.201-6.72 M100.062,147.083l6.243-33.36 M107.504,107.003l1.44-6.72 M110.146,93.563
	l3.361-17.52 M72.932,291.801l10.561-14.399 M87.333,271.882l4.081-5.52 M95.495,260.842l19.921-27.598 M119.257,227.725l4.08-5.521
	 M127.178,216.685l19.921-27.599 M151.18,183.566l4.081-5.52 M159.101,172.526l19.921-27.599 M183.103,139.408l3.84-5.521
	 M191.023,128.369l10.561-14.64 M72.932,291.801l15.121-9.599 M93.813,278.603l5.76-3.6 M105.333,271.163l28.802-18.238
	 M139.895,249.325l5.521-3.6 M151.176,242.126l28.801-18.478 M185.737,220.049l5.76-3.601 M197.258,212.849l28.562-18.478
	 M231.579,190.771l5.76-3.6 M243.1,183.572l15.121-9.6 M72.932,291.801l17.281-4.799 M96.693,285.083l6.72-1.92 M109.893,281.243
	l32.641-9.357 M149.014,269.966l6.721-1.679 M162.214,266.366l32.641-9.357 M201.575,255.09l6.48-1.92 M214.535,251.251l32.88-9.358
	 M253.896,239.973l6.48-1.919 M266.856,236.374l17.281-5.039 M72.932,291.801l18,0.001 M97.652,291.803h6.96 M111.332,291.804
	l34.08,0.002 M152.132,291.806l6.96,0.001 M165.813,291.807l34.08,0.003 M206.612,291.81h6.96 M220.292,291.811l34.08,0.002
	 M261.092,291.813h6.96 M274.772,291.814l18,0.001 M294.932,291.815l43.44,0.003 M113.747,73.883l8.163-42.719"/>
<path fill="none" stroke="#000000" stroke-width="0.72" stroke-linecap="round" stroke-linejoin="bevel" stroke-miterlimit="10" d="
	M333.573,283.898l-0.479-12.48l-1.439-12.72l-1.919-12.48l-2.4-12.24l-3.119-12.24l-3.6-12l-4.319-12l-4.799-11.521l-5.279-11.521
	l-5.999-11.041l-6.479-10.8l-6.959-10.56l-7.44-10.081 M267.824,118.293l-8.64-9.121l-9.12-8.88l-9.359-8.161l-9.839-7.921
	l-10.319-7.441l-10.32-6.961l-11.04-6.241l-11.04-5.761l-11.52-5.281l-11.76-4.801l-11.76-4.081l-12.239-3.601l-12.24-3.121"/>
<polygon points="335.253,283.898 332.613,283.898 334.052,291.818 "/>
<polygon points="128.629,38.364 129.109,35.724 120.949,35.484 "/>
<path fill="none" stroke="#000000" stroke-width="0.72" stroke-linecap="round" stroke-linejoin="round" stroke-miterlimit="10" d="
	M267.104,122.853l7.92-1.919l-3.12-3.84 M277.423,127.654l-0.96,0.48h-0.96l-0.96-0.72l-0.24-0.24l-0.48-0.96l0.24-1.2l0.48-0.96
	l0.24-0.24l1.2-0.24l0.96,0l0.96,0.721l0.24,0.239l0.24,0.961v0.96L277.423,127.654l-1.2,1.2l-1.68,0.96h-1.2l-0.96-0.479
	l-0.479-0.721l-0.48-0.96l0.24-0.72"/>
<polygon fill="none" stroke="#000000" stroke-width="0.72" stroke-linecap="round" stroke-linejoin="bevel" stroke-miterlimit="10" points="
	281.023,128.375 280.304,128.134 280.063,128.614 280.543,129.094 281.023,128.854 "/>
<path fill="none" stroke="#000000" stroke-width="0.72" stroke-linecap="round" stroke-linejoin="round" stroke-miterlimit="10" d="
	M294.932,291.815l28.32,0.002 M202.785,112.049l16.561-23.279"/>
<path fill="none" stroke="#000000" stroke-width="0.72" stroke-linecap="round" stroke-linejoin="bevel" stroke-miterlimit="10" d="
	M318.693,283.897l-0.719-12.48l-1.199-12.24l-1.92-12.24l-2.639-12.239l-3.119-12.001l-3.839-11.76l-4.319-11.761l-5.04-11.28
	 M287.741,171.815l-6.479-10.801l-6.719-10.321l-7.439-9.84l-7.919-9.84l-8.399-9.121l-8.639-8.64l-9.359-8.401l-9.6-7.921"/>
<polygon points="320.373,283.897 317.733,283.897 319.172,291.817 "/>
<polygon points="222.465,98.13 224.146,95.97 216.945,92.37 "/>
<path fill="none" stroke="#000000" stroke-width="0.72" stroke-linecap="round" stroke-linejoin="round" stroke-miterlimit="10" d="
	M293.98,175.176l-1.679-3.12l-3.121,1.2h0.48l0.96,0.96l0.48,0.96v0.96l-0.24,0.96l-0.72,0.96l-0.72,0.24l-0.96,0.239l-0.96-0.48
	l-0.96-0.72l-0.48-0.96l-0.24-0.96l0.24-0.48l0.48-0.72 M296.859,180.936l-6-0.96l2.4,4.8 M296.859,180.936l-6.72,3.36"/>
<polygon fill="none" stroke="#000000" stroke-width="0.72" stroke-linecap="round" stroke-linejoin="bevel" stroke-miterlimit="10" points="
	298.3,184.296 297.82,184.056 297.339,184.536 297.58,185.016 298.06,184.776 "/>
<path fill="none" stroke="#000000" stroke-width="0.72" stroke-linecap="round" stroke-linejoin="round" stroke-miterlimit="10" d="
	M294.932,291.815l14.16,0.001 M260.141,172.773l12-7.68"/>
<path fill="none" stroke="#000000" stroke-width="0.72" stroke-linecap="round" stroke-linejoin="bevel" stroke-miterlimit="10" d="
	M304.293,283.896l-0.719-12.24l-1.199-12l-2.159-12l-2.639-12 M292.537,218.375l-4.079-11.52l-4.799-11.041l-5.279-11.04l-6-10.561"
	/>
<polygon points="305.973,283.896 303.333,283.896 304.772,291.816 "/>
<polygon points="271.42,174.934 273.82,173.494 268.541,167.253 "/>
<path fill="none" stroke="#000000" stroke-width="0.72" stroke-linecap="round" stroke-linejoin="round" stroke-miterlimit="10" d="
	M297.337,219.576l0.96,3.6l-3.36-1.2l0.24,0.96v0.96l-0.24,0.24l-0.96,0.72l-0.72,0.24h-1.2l-0.72-0.48l-0.719-0.96l-0.24-0.96v-1.2
	l0.24-0.479l0.48-0.48 M299.257,226.296l1.2,3.84l-3.36-1.2l0.24,0.96l-0.24,0.721l-0.24,0.479l-0.96,0.72l-0.72,0.24l-0.96-0.24
	l-0.959-0.48l-0.72-0.96l-0.24-0.96v-1.199l0.24-0.24l0.72-0.72"/>
<path fill="none" stroke="#000000" stroke-width="0.72" stroke-linecap="round" stroke-linejoin="bevel" stroke-miterlimit="10" d="
	M300.936,232.536l-0.48-0.24l-0.48,0.24l0.24,0.72h0.48L300.936,232.536z M290.373,283.896l-0.959-13.92 M287.255,253.175
	l-3.12-13.68"/>
<polygon points="292.053,283.896 289.413,283.896 290.852,291.815 "/>
<polygon points="283.176,239.735 285.816,239.255 282.456,231.814 "/>
<path fill="none" stroke="#000000" stroke-width="0.72" stroke-linecap="round" stroke-linejoin="round" stroke-miterlimit="10" d="
	M290.135,254.375l0.48,0.721l1.2,0.72l-7.44,1.199 M291.814,264.936l0.72-0.48l0.24-1.199v-0.721l-0.72-0.96l-0.959-0.479
	l-1.92-0.24l-1.681,0.479l-1.44,0.479l-0.72,0.721v1.2v0.239l0.48,1.2l0.72,0.48l1.2,0.24h0.24l1.2-0.48l0.48-0.96l0.24-0.96v-0.479
	l-0.48-0.96l-0.96-0.721h-0.96"/>
<polygon fill="none" stroke="#000000" stroke-width="0.72" stroke-linecap="round" stroke-linejoin="bevel" stroke-miterlimit="10" points="
	293.014,267.335 292.534,266.855 292.054,267.096 292.294,267.575 292.774,267.815 "/>
<path fill="none" stroke="#000000" stroke-width="0.72" stroke-linecap="round" stroke-linejoin="round" stroke-miterlimit="10" d="
	M533.73,322.312l0.002-36.72 M533.733,278.632v-6.721 M533.733,265.191l0.003-34.08 M533.736,224.151l0.001-6.72 M533.737,210.712
	l0.002-34.08 M533.74,169.911v-6.96 M533.741,156.231l0.002-34.08 M533.744,115.431v-6.96 M533.745,101.75l0.002-34.08
	 M533.747,60.951l0.001-6.96 M533.748,47.271l0.003-36.721 M687.58,168.482l-36.72-0.002 M643.9,168.479l-6.721,0 M630.22,168.479
	l-33.84-0.002 M589.42,168.476l-6.72,0 M575.74,168.475l-33.84-0.002 M534.94,168.472l-6.721,0 M521.5,168.471l-34.08-0.002
	 M480.46,168.468l-6.72,0 M467.021,168.467l-34.08-0.002 M425.98,168.465l-6.721,0 M412.54,168.464l-36.96-0.002 M496.064,107.269
	l-86.881-0.006 M496.061,168.469l-86.881-0.006 M413.264,115.183l-0.002,18.72 M413.261,160.542l0.001-18.72"/>
<polygon points="412.064,115.183 414.704,115.183 413.264,107.263 "/>
<polygon points="412.062,160.542 414.701,160.542 413.26,168.464 "/>
<path fill="none" stroke="#000000" stroke-width="0.72" stroke-linecap="round" stroke-linejoin="round" stroke-miterlimit="10" d="
	M409.662,140.383l7.439-5.04 M409.662,135.343l7.439,5.041 M496.057,229.669l-86.881-0.006 M496.061,168.469l-86.881-0.006
	 M413.256,221.744l0.002-18.721 M413.26,176.384l-0.002,18.72"/>
<polygon points="412.057,221.743 414.696,221.744 413.256,229.664 "/>
<polygon points="412.061,176.383 414.7,176.384 413.26,168.464 "/>
<path fill="none" stroke="#000000" stroke-width="0.72" stroke-linecap="round" stroke-linejoin="round" stroke-miterlimit="10" d="
	M409.658,201.583l7.439-5.039 M409.658,196.543l7.439,5.041 M498.216,231.829l-0.005,64.8 M533.736,231.831l-0.005,64.801
	 M506.132,292.31l5.761,0.001 M525.813,292.312l-5.76-0.001"/>
<polygon points="506.132,290.869 506.132,293.51 498.212,292.31 "/>
<polygon points="525.813,290.871 525.813,293.511 533.732,292.312 "/>
<path fill="none" stroke="#000000" stroke-width="0.72" stroke-linecap="round" stroke-linejoin="round" stroke-miterlimit="10" d="
	M513.572,288.47l4.799,7.44 M518.372,288.471l-4.801,7.439 M569.017,231.834l-0.005,64.8 M533.736,231.831l-0.005,64.801
	 M561.092,292.313h-5.76 M541.652,292.313h5.76"/>
<polygon points="561.092,290.873 561.092,293.514 569.013,292.314 "/>
<polygon points="541.652,290.872 541.652,293.512 533.732,292.312 "/>
<path fill="none" stroke="#000000" stroke-width="0.72" stroke-linecap="round" stroke-linejoin="round" stroke-miterlimit="10" d="
	M548.853,288.473l5.039,7.44 M553.893,288.473l-5.041,7.439 M462.94,170.626l-0.011,157.2 M533.74,170.631l-0.011,157.2
	 M470.851,323.507l23.52,0.002 M525.811,323.511l-23.521-0.001"/>
<polygon points="470.851,322.067 470.85,324.707 462.931,323.507 "/>
<polygon points="525.811,322.071 525.81,324.711 533.73,323.512 "/>
<path fill="none" stroke="#000000" stroke-width="0.72" stroke-linecap="round" stroke-linejoin="round" stroke-miterlimit="10" d="
	M495.811,319.669l5.039,7.44 M500.851,319.669l-5.041,7.44 M604.54,170.636l-0.011,157.2 M533.74,170.631l-0.011,157.2
	 M596.37,323.516l-23.28-0.002 M541.65,323.512l23.28,0.002"/>
<polygon points="596.37,322.075 596.369,324.716 604.53,323.517 "/>
<polygon points="541.65,322.072 541.649,324.712 533.73,323.512 "/>
<path fill="none" stroke="#000000" stroke-width="0.72" stroke-linecap="round" stroke-linejoin="round" stroke-miterlimit="10" d="
	M566.61,319.674l5.039,7.44 M571.65,319.674l-5.041,7.439"/>
</svg>
