<?xml version="1.0" encoding="UTF-8" standalone="no"?>
<!-- Created with Inkscape (http://www.inkscape.org/) -->
<svg xmlns:svg="http://www.w3.org/2000/svg" xmlns="http://www.w3.org/2000/svg" version="1.0" width="557.47778" height="332.52722" id="svg2" style="display:inline">
  <defs id="defs5"/>
  <g transform="translate(-17.3083, -2.13125)" id="layer2">
    <g id="g3554">
      <g id="g3481">
        <g id="g3288">
          <path d="M 33.277231,53.602838 L 33.277231,62.889507 L 90.738496,65.791592 L 33.277231,68.500203 L 33.277231,79.141178 L 172.77074,80.495484 L 172.77074,53.022422 L 33.277231,53.602838 z" id="path3273" style="fill:#e4dfac;fill-opacity:1;fill-rule:evenodd;stroke:#000000;stroke-width:1px;stroke-linecap:butt;stroke-linejoin:miter;stroke-opacity:1"/>
          <g id="g3195">
            <g id="g3165">
              <rect width="161.43056" height="37.758335" x="18.058332" y="21.1" id="rect2388" style="opacity:1;fill:#d5d5ee;fill-opacity:1;fill-rule:nonzero;stroke:#000000;stroke-width:1.5;stroke-linecap:round;stroke-linejoin:miter;stroke-miterlimit:4;stroke-dasharray:none;stroke-opacity:1"/>
              <path d="M 29.732408,32.591666 L 39.536806,32.591666 L 39.62801,10.565972 L 44.872223,10.565972 L 34.68021,2.6312494 L 24.488195,10.565972 L 29.732408,10.565972 L 29.732408,32.591666 z" id="path3163" style="fill:#ffffff;fill-opacity:1;fill-rule:evenodd;stroke:#000000;stroke-width:1px;stroke-linecap:butt;stroke-linejoin:miter;stroke-opacity:1"/>
            </g>
            <g transform="matrix(1, 0, 0, -1, 0, 133.152)" id="g3169">
              <rect width="161.43056" height="37.758335" x="18.058332" y="21.1" id="rect3171" style="opacity:1;fill:#d5d5ee;fill-opacity:1;fill-rule:nonzero;stroke:#000000;stroke-width:1.5;stroke-linecap:round;stroke-linejoin:miter;stroke-miterlimit:4;stroke-dasharray:none;stroke-opacity:1"/>
              <path d="M 29.732408,32.591666 L 39.536806,32.591666 L 39.62801,10.565972 L 44.872223,10.565972 L 34.68021,2.6312494 L 24.488195,10.565972 L 29.732408,10.565972 L 29.732408,32.591666 z" id="path3173" style="fill:#ffffff;fill-opacity:1;fill-rule:evenodd;stroke:#000000;stroke-width:1px;stroke-linecap:butt;stroke-linejoin:miter;stroke-opacity:1"/>
            </g>
          </g>
        </g>
        <g transform="translate(-1.52588e-05)" id="g3278">
          <path d="M 232.16673,45.863947 L 232.16673,68.306731 L 290.01494,71.208815 L 232.16673,71.982704 L 232.16673,79.528123 L 370.69287,80.495484 L 370.69287,48.379087 L 232.16673,45.863947 z" id="path3275" style="opacity:1;fill:#e4dfac;fill-opacity:1;fill-rule:evenodd;stroke:#000000;stroke-width:1px;stroke-linecap:butt;stroke-linejoin:miter;stroke-opacity:1"/>
          <g transform="translate(197.274)" id="g3203">
            <g id="g3205">
              <rect width="161.43056" height="37.758335" x="18.058332" y="21.1" id="rect3207" style="opacity:1;fill:#d5d5ee;fill-opacity:1;fill-rule:nonzero;stroke:#000000;stroke-width:1.5;stroke-linecap:round;stroke-linejoin:miter;stroke-miterlimit:4;stroke-dasharray:none;stroke-opacity:1"/>
              <path d="M 29.732408,32.591666 L 39.536806,32.591666 L 39.62801,10.565972 L 44.872223,10.565972 L 34.68021,2.6312494 L 24.488195,10.565972 L 29.732408,10.565972 L 29.732408,32.591666 z" id="path3209" style="fill:#ffffff;fill-opacity:1;fill-rule:evenodd;stroke:#000000;stroke-width:1px;stroke-linecap:butt;stroke-linejoin:miter;stroke-opacity:1"/>
            </g>
            <g transform="matrix(1, 0, 0, -1, 0, 133.152)" id="g3211">
              <rect width="161.43056" height="37.758335" x="18.058332" y="21.1" id="rect3213" style="opacity:1;fill:#d5d5ee;fill-opacity:1;fill-rule:nonzero;stroke:#000000;stroke-width:1.5;stroke-linecap:round;stroke-linejoin:miter;stroke-miterlimit:4;stroke-dasharray:none;stroke-opacity:1"/>
              <path d="M 29.732408,32.591666 L 39.536806,32.591666 L 39.62801,10.565972 L 44.872223,10.565972 L 34.68021,2.6312494 L 24.488195,10.565972 L 29.732408,10.565972 L 29.732408,32.591666 z" id="path3215" style="fill:#ffffff;fill-opacity:1;fill-rule:evenodd;stroke:#000000;stroke-width:1px;stroke-linecap:butt;stroke-linejoin:miter;stroke-opacity:1"/>
            </g>
          </g>
        </g>
        <switch style="font-size:27.28308487px;font-style:normal;font-variant:normal;font-weight:normal;font-stretch:normal;fill:#000000;fill-opacity:1;stroke:none;stroke-width:1px;stroke-linecap:butt;stroke-linejoin:miter;stroke-opacity:1;font-family:Sans;-inkscape-font-specification:Newspaper"><text x="32.136593" y="144.54643" id="text3393-ca" xml:space="preserve" style="font-size:27.28308487px;font-style:normal;font-variant:normal;font-weight:normal;font-stretch:normal;fill:#000000;fill-opacity:1;stroke:none;stroke-width:1px;stroke-linecap:butt;stroke-linejoin:miter;stroke-opacity:1;font-family:Sans;-inkscape-font-specification:Newspaper" systemLanguage="ca"><tspan x="32.136593" y="144.54643" id="tspan3395-ca" style="font-size:13.64154243px;font-style:normal;font-variant:normal;font-weight:normal;font-stretch:normal;font-family:Liberation Sans;-inkscape-font-specification:Liberation Sans">Fractures "cohesives" i "cohesives a prop de la interfície"</tspan></text><text x="32.136593" y="144.54643" id="text3393" xml:space="preserve" style="font-size:27.28308487px;font-style:normal;font-variant:normal;font-weight:normal;font-stretch:normal;fill:#000000;fill-opacity:1;stroke:none;stroke-width:1px;stroke-linecap:butt;stroke-linejoin:miter;stroke-opacity:1;font-family:Sans;-inkscape-font-specification:Newspaper"><tspan x="32.136593" y="144.54643" id="tspan3395" style="font-size:13.64154243px;font-style:normal;font-variant:normal;font-weight:normal;font-stretch:normal;font-family:Liberation Sans;-inkscape-font-specification:Liberation Sans">"Cohesive" and "cohesive near the interface" fractures.</tspan></text></switch>
      </g>
      <g id="g3503">
        <g id="g3459">
          <path d="M 424.67164,46.637837 L 424.67164,69.08062 L 558.94139,78.173817 L 558.94139,51.668116 L 424.67164,46.637837 z" id="path3298" style="fill:#e4dfac;fill-opacity:1;fill-rule:evenodd;stroke:#000000;stroke-width:1px;stroke-linecap:butt;stroke-linejoin:miter;stroke-opacity:1"/>
          <g transform="translate(394.547)" id="g3217">
            <g id="g3219">
              <rect width="161.43056" height="37.758335" x="18.058332" y="21.1" id="rect3221" style="opacity:1;fill:#d5d5ee;fill-opacity:1;fill-rule:nonzero;stroke:#000000;stroke-width:1.5;stroke-linecap:round;stroke-linejoin:miter;stroke-miterlimit:4;stroke-dasharray:none;stroke-opacity:1"/>
              <path d="M 29.732408,32.591666 L 39.536806,32.591666 L 39.62801,10.565972 L 44.872223,10.565972 L 34.68021,2.6312494 L 24.488195,10.565972 L 29.732408,10.565972 L 29.732408,32.591666 z" id="path3223" style="fill:#ffffff;fill-opacity:1;fill-rule:evenodd;stroke:#000000;stroke-width:1px;stroke-linecap:butt;stroke-linejoin:miter;stroke-opacity:1"/>
            </g>
            <g transform="matrix(1, 0, 0, -1, 0, 133.152)" id="g3225">
              <rect width="161.43056" height="37.758335" x="18.058332" y="21.1" id="rect3227" style="opacity:1;fill:#d5d5ee;fill-opacity:1;fill-rule:nonzero;stroke:#000000;stroke-width:1.5;stroke-linecap:round;stroke-linejoin:miter;stroke-miterlimit:4;stroke-dasharray:none;stroke-opacity:1"/>
              <path d="M 29.732408,32.591666 L 39.536806,32.591666 L 39.62801,10.565972 L 44.872223,10.565972 L 34.68021,2.6312494 L 24.488195,10.565972 L 29.732408,10.565972 L 29.732408,32.591666 z" id="path3229" style="fill:#ffffff;fill-opacity:1;fill-rule:evenodd;stroke:#000000;stroke-width:1px;stroke-linecap:butt;stroke-linejoin:miter;stroke-opacity:1"/>
            </g>
          </g>
        </g>
        <switch style="font-size:27.28308487px;font-style:normal;font-variant:normal;font-weight:normal;font-stretch:normal;fill:#000000;fill-opacity:1;stroke:none;stroke-width:1px;stroke-linecap:butt;stroke-linejoin:miter;stroke-opacity:1;font-family:Sans;-inkscape-font-specification:Newspaper"><text x="411.66238" y="144.54643" id="text3401-ca" xml:space="preserve" style="font-size:27.28308487px;font-style:normal;font-variant:normal;font-weight:normal;font-stretch:normal;fill:#000000;fill-opacity:1;stroke:none;stroke-width:1px;stroke-linecap:butt;stroke-linejoin:miter;stroke-opacity:1;font-family:Sans;-inkscape-font-specification:Newspaper" systemLanguage="ca"><tspan x="411.66238" y="144.54643" id="tspan3405-ca" style="font-size:13.64154243px;font-style:normal;font-variant:normal;font-weight:normal;font-stretch:normal;font-family:Liberation Sans;-inkscape-font-specification:Liberation Sans">Fractura "adhesiva" </tspan><tspan x="411.66238" y="161.59836" id="tspan3409-ca" style="font-size:13.64154243px;font-style:normal;font-variant:normal;font-weight:normal;font-stretch:normal;font-family:Liberation Sans;-inkscape-font-specification:Liberation Sans">o "interfacial"</tspan></text><text x="411.66238" y="144.54643" id="text3401" xml:space="preserve" style="font-size:27.28308487px;font-style:normal;font-variant:normal;font-weight:normal;font-stretch:normal;fill:#000000;fill-opacity:1;stroke:none;stroke-width:1px;stroke-linecap:butt;stroke-linejoin:miter;stroke-opacity:1;font-family:Sans;-inkscape-font-specification:Newspaper"><tspan x="411.66238" y="144.54643" id="tspan3405" style="font-size:13.64154243px;font-style:normal;font-variant:normal;font-weight:normal;font-stretch:normal;font-family:Liberation Sans;-inkscape-font-specification:Liberation Sans">"Adhesive" or "interfacial"</tspan><tspan x="411.66238" y="161.59836" id="tspan3409" style="font-size:13.64154243px;font-style:normal;font-variant:normal;font-weight:normal;font-stretch:normal;font-family:Liberation Sans;-inkscape-font-specification:Liberation Sans">fracture</tspan></text></switch>
      </g>
      <g id="g3532">
        <g transform="translate(0, 10.0606)" id="g3449">
          <path d="M 33.470703,223.27802 L 33.470703,241.46441 L 43.144317,233.53205 L 47.013763,233.53205 L 54.752653,245.33386 L 65.200156,233.53205 L 70.036963,233.53205 L 78.162798,244.3665 L 85.708217,236.43414 L 79.130159,249.78372 L 76.808492,249.78372 L 67.908768,236.62761 L 57.267793,249.78372 L 53.204875,249.78372 L 45.465984,236.82108 L 33.277231,244.94692 L 33.277231,256.74872 L 172.19032,256.36178 L 172.19032,224.8258 L 33.470703,223.27802 z" id="path3300" style="opacity:1;fill:#e4dfac;fill-opacity:1;fill-rule:evenodd;stroke:#000000;stroke-width:1px;stroke-linecap:butt;stroke-linejoin:miter;stroke-opacity:1"/>
          <g transform="translate(0, 175.111)" id="g3231">
            <g id="g3233">
              <rect width="161.43056" height="37.758335" x="18.058332" y="21.1" id="rect3235" style="opacity:1;fill:#d5d5ee;fill-opacity:1;fill-rule:nonzero;stroke:#000000;stroke-width:1.5;stroke-linecap:round;stroke-linejoin:miter;stroke-miterlimit:4;stroke-dasharray:none;stroke-opacity:1"/>
              <path d="M 29.732408,32.591666 L 39.536806,32.591666 L 39.62801,10.565972 L 44.872223,10.565972 L 34.68021,2.6312494 L 24.488195,10.565972 L 29.732408,10.565972 L 29.732408,32.591666 z" id="path3237" style="fill:#ffffff;fill-opacity:1;fill-rule:evenodd;stroke:#000000;stroke-width:1px;stroke-linecap:butt;stroke-linejoin:miter;stroke-opacity:1"/>
            </g>
            <g transform="matrix(1, 0, 0, -1, 0, 133.152)" id="g3239">
              <rect width="161.43056" height="37.758335" x="18.058332" y="21.1" id="rect3241" style="opacity:1;fill:#d5d5ee;fill-opacity:1;fill-rule:nonzero;stroke:#000000;stroke-width:1.5;stroke-linecap:round;stroke-linejoin:miter;stroke-miterlimit:4;stroke-dasharray:none;stroke-opacity:1"/>
              <path d="M 29.732408,32.591666 L 39.536806,32.591666 L 39.62801,10.565972 L 44.872223,10.565972 L 34.68021,2.6312494 L 24.488195,10.565972 L 29.732408,10.565972 L 29.732408,32.591666 z" id="path3243" style="fill:#ffffff;fill-opacity:1;fill-rule:evenodd;stroke:#000000;stroke-width:1px;stroke-linecap:butt;stroke-linejoin:miter;stroke-opacity:1"/>
            </g>
          </g>
        </g>
        <g transform="translate(-7.62939e-06, 10.0606)" id="g3439">
          <path d="M 232.16673,223.08455 L 232.3602,246.30122 L 244.74242,246.30122 L 249.38576,233.53205 L 264.4766,233.53205 L 269.3134,246.30122 L 279.56743,246.30122 L 284.0173,233.53205 L 299.49508,233.53205 L 302.97758,246.30122 L 312.26425,246.30122 L 319.61619,243.20566 L 312.07078,249.9772 L 301.04286,249.9772 L 297.36688,236.82108 L 285.56507,236.82108 L 280.72827,249.9772 L 266.79826,249.9772 L 262.73535,236.82108 L 250.54659,236.82108 L 244.35548,252.10539 L 369.33857,252.49233 L 369.33857,229.46913 L 232.16673,223.08455 z" id="path3369" style="fill:#e4dfac;fill-opacity:1;fill-rule:evenodd;stroke:#000000;stroke-width:1px;stroke-linecap:butt;stroke-linejoin:miter;stroke-opacity:1"/>
          <g transform="translate(197.274, 175.111)" id="g3245">
            <g id="g3247">
              <rect width="161.43056" height="37.758335" x="18.058332" y="21.1" id="rect3249" style="opacity:1;fill:#d5d5ee;fill-opacity:1;fill-rule:nonzero;stroke:#000000;stroke-width:1.5;stroke-linecap:round;stroke-linejoin:miter;stroke-miterlimit:4;stroke-dasharray:none;stroke-opacity:1"/>
              <path d="M 29.732408,32.591666 L 39.536806,32.591666 L 39.62801,10.565972 L 44.872223,10.565972 L 34.68021,2.6312494 L 24.488195,10.565972 L 29.732408,10.565972 L 29.732408,32.591666 z" id="path3251" style="fill:#ffffff;fill-opacity:1;fill-rule:evenodd;stroke:#000000;stroke-width:1px;stroke-linecap:butt;stroke-linejoin:miter;stroke-opacity:1"/>
            </g>
            <g transform="matrix(1, 0, 0, -1, 0, 133.152)" id="g3253">
              <rect width="161.43056" height="37.758335" x="18.058332" y="21.1" id="rect3255" style="opacity:1;fill:#d5d5ee;fill-opacity:1;fill-rule:nonzero;stroke:#000000;stroke-width:1.5;stroke-linecap:round;stroke-linejoin:miter;stroke-miterlimit:4;stroke-dasharray:none;stroke-opacity:1"/>
              <path d="M 29.732408,32.591666 L 39.536806,32.591666 L 39.62801,10.565972 L 44.872223,10.565972 L 34.68021,2.6312494 L 24.488195,10.565972 L 29.732408,10.565972 L 29.732408,32.591666 z" id="path3257" style="fill:#ffffff;fill-opacity:1;fill-rule:evenodd;stroke:#000000;stroke-width:1px;stroke-linecap:butt;stroke-linejoin:miter;stroke-opacity:1"/>
            </g>
          </g>
        </g>
        <switch style="font-size:27.28308487px;font-style:normal;font-variant:normal;font-weight:normal;font-stretch:normal;fill:#000000;fill-opacity:1;stroke:none;stroke-width:1px;stroke-linecap:butt;stroke-linejoin:miter;stroke-opacity:1;font-family:Sans;-inkscape-font-specification:Newspaper"><text x="51.423264" y="331.82758" id="text3473-ca" xml:space="preserve" style="font-size:27.28308487px;font-style:normal;font-variant:normal;font-weight:normal;font-stretch:normal;fill:#000000;fill-opacity:1;stroke:none;stroke-width:1px;stroke-linecap:butt;stroke-linejoin:miter;stroke-opacity:1;font-family:Sans;-inkscape-font-specification:Newspaper" systemLanguage="ca"><tspan x="51.423264" y="331.82758" id="tspan3475-ca" style="font-size:13.64154243px;font-style:normal;font-variant:normal;font-weight:normal;font-stretch:normal;font-family:Liberation Sans;-inkscape-font-specification:Liberation Sans">Fractura que salta d'una interfície a l'altra</tspan></text><text x="51.423264" y="331.82758" id="text3473" xml:space="preserve" style="font-size:27.28308487px;font-style:normal;font-variant:normal;font-weight:normal;font-stretch:normal;fill:#000000;fill-opacity:1;stroke:none;stroke-width:1px;stroke-linecap:butt;stroke-linejoin:miter;stroke-opacity:1;font-family:Sans;-inkscape-font-specification:Newspaper"><tspan x="51.423264" y="331.82758" id="tspan3475" style="font-size:13.64154243px;font-style:normal;font-variant:normal;font-weight:normal;font-stretch:normal;font-family:Liberation Sans;-inkscape-font-specification:Liberation Sans">Fracture jumping from one interface to the other.</tspan></text></switch>
      </g>
      <g id="g3517">
        <g transform="translate(0, 10.0606)" id="g3427">
          <g id="g3411">
            <path d="M 424.67164,226.56705 L 424.67164,240.884 C 424.67164,240.884 437.22315,238.05447 440.31871,234.28176 C 443.41427,230.50905 438.98859,214.18482 438.98859,214.18482 L 424.67164,226.56705 z" id="path3384" style="fill:#e4dfac;fill-opacity:1;fill-rule:evenodd;stroke:#000000;stroke-width:1px;stroke-linecap:butt;stroke-linejoin:miter;stroke-opacity:1"/>
            <path d="M 424.28469,259.65081 L 424.47817,244.17303 C 424.47817,244.17303 440.68147,240.56961 444.91368,234.18502 C 449.21349,227.69844 484.45457,224.24538 484.45457,224.24538 L 563.97167,224.24538 L 563.97167,255.78136 L 424.28469,259.65081 z" id="path3386" style="opacity:1;fill:#e4dfac;fill-opacity:1;fill-rule:evenodd;stroke:#000000;stroke-width:1px;stroke-linecap:butt;stroke-linejoin:miter;stroke-opacity:1"/>
          </g>
          <g id="g3419">
            <g id="g3415">
              <path d="M 412.60553,196.21111 L 574.03609,196.21111 L 574.03609,233.96944 L 445.37317,233.96944 C 445.37317,233.96944 451.1451,226.74892 450.69366,216.55694 C 447.12873,222.90194 442.00759,231.09063 440.24616,233.96944 L 412.60553,233.96944 L 412.60553,196.21111 z" id="rect3263" style="opacity:1;fill:#d5d5ee;fill-opacity:1;fill-rule:nonzero;stroke:#000000;stroke-width:1.5;stroke-linecap:round;stroke-linejoin:miter;stroke-miterlimit:4;stroke-opacity:1"/>
              <path d="M 424.27962,207.70278 L 434.08402,207.70278 L 434.17522,185.67708 L 439.41943,185.67708 L 429.22742,177.74236 L 419.03541,185.67708 L 424.27962,185.67708 L 424.27962,207.70278 z" id="path3265" style="fill:#ffffff;fill-opacity:1;fill-rule:evenodd;stroke:#000000;stroke-width:1px;stroke-linecap:butt;stroke-linejoin:miter;stroke-opacity:1"/>
            </g>
            <g transform="matrix(1, 0, 0, -1, 394.547, 308.263)" id="g3267">
              <rect width="161.43056" height="37.758335" x="18.058332" y="21.1" id="rect3269" style="opacity:1;fill:#d5d5ee;fill-opacity:1;fill-rule:nonzero;stroke:#000000;stroke-width:1.5;stroke-linecap:round;stroke-linejoin:miter;stroke-miterlimit:4;stroke-dasharray:none;stroke-opacity:1"/>
              <path d="M 29.732408,32.591666 L 39.536806,32.591666 L 39.62801,10.565972 L 44.872223,10.565972 L 34.68021,2.6312494 L 24.488195,10.565972 L 29.732408,10.565972 L 29.732408,32.591666 z" id="path3271" style="fill:#ffffff;fill-opacity:1;fill-rule:evenodd;stroke:#000000;stroke-width:1px;stroke-linecap:butt;stroke-linejoin:miter;stroke-opacity:1"/>
            </g>
          </g>
        </g>
        <switch style="font-size:27.28308487px;font-style:normal;font-variant:normal;font-weight:normal;font-stretch:normal;fill:#000000;fill-opacity:1;stroke:none;stroke-width:1px;stroke-linecap:butt;stroke-linejoin:miter;stroke-opacity:1;font-family:Sans;-inkscape-font-specification:Newspaper"><text x="410.73651" y="331.82758" id="text3477-ca" xml:space="preserve" style="font-size:27.28308487px;font-style:normal;font-variant:normal;font-weight:normal;font-stretch:normal;fill:#000000;fill-opacity:1;stroke:none;stroke-width:1px;stroke-linecap:butt;stroke-linejoin:miter;stroke-opacity:1;font-family:Sans;-inkscape-font-specification:Newspaper" systemLanguage="ca"><tspan x="410.73651" y="331.82758" id="tspan3479-ca" style="font-size:13.64154243px;font-style:normal;font-variant:normal;font-weight:normal;font-stretch:normal;font-family:Liberation Sans;-inkscape-font-specification:Liberation Sans">Fractura en l'adherent.</tspan></text><text x="410.73651" y="331.82758" id="text3477" xml:space="preserve" style="font-size:27.28308487px;font-style:normal;font-variant:normal;font-weight:normal;font-stretch:normal;fill:#000000;fill-opacity:1;stroke:none;stroke-width:1px;stroke-linecap:butt;stroke-linejoin:miter;stroke-opacity:1;font-family:Sans;-inkscape-font-specification:Newspaper"><tspan x="410.73651" y="331.82758" id="tspan3479" style="font-size:13.64154243px;font-style:normal;font-variant:normal;font-weight:normal;font-stretch:normal;font-family:Liberation Sans;-inkscape-font-specification:Liberation Sans">Fracture in the adherent.</tspan></text></switch>
      </g>
    </g>
  </g>
</svg>
